<?xml version="1.0" encoding="utf-8"?>
<!-- Generator: Adobe Illustrator 24.0.2, SVG Export Plug-In . SVG Version: 6.00 Build 0)  -->
<svg version="1.1" id="Layer_1" xmlns="http://www.w3.org/2000/svg" xmlns:xlink="http://www.w3.org/1999/xlink" x="0px" y="0px"
	 viewBox="0 0 500 500" style="enable-background:new 0 0 500 500;" xml:space="preserve">
<style type="text/css">
	.st0{fill:#CC9933;}
</style>
<title></title>
<path class="st0" d="M250,193.3c-31.3,0-56.7,25.4-56.7,56.7s25.4,56.7,56.7,56.7s56.7-25.4,56.7-56.7
	C306.7,218.7,281.3,193.3,250,193.3z"/>
<path class="st0" d="M316.7,105.5H183.3c-42.9,0-77.7,34.8-77.8,77.8v133.5c0,42.9,34.8,77.7,77.8,77.8h133.5
	c42.9,0,77.7-34.8,77.8-77.8V183.3C394.5,140.3,359.7,105.5,316.7,105.5z M250,336.7c-47.9,0-86.7-38.8-86.7-86.7
	c0-47.9,38.8-86.7,86.7-86.7c47.9,0,86.7,38.8,86.7,86.7C336.6,297.9,297.9,336.6,250,336.7z M345.3,176.4
	c-11.8,0-21.4-9.6-21.4-21.4c0-11.8,9.6-21.4,21.4-21.4c11.8,0,21.4,9.6,21.4,21.4C366.7,166.8,357.1,176.4,345.3,176.4
	C345.3,176.4,345.3,176.4,345.3,176.4L345.3,176.4z"/>
<path class="st0" d="M484.9,124.7c0-8.5-0.8-16.9-2.3-25.3c-1.9-10.2-4.7-20.1-9.5-29.3c-5.1-9.7-11.7-18.5-19.6-26.1
	c-11.9-11.7-26.6-20.1-42.8-24.4c-14.8-4-30-4.8-45.2-4.8c-0.1-0.1-0.1-0.1-0.1-0.2H134.6c0,0.1,0,0.2,0,0.2
	c-8.7,0.2-17.3,0.1-25.9,1.2C99.2,16.9,90,19,81,22.1c-13.9,5.1-26.5,13.4-36.8,24.1C32.5,58.2,24,73,19.7,89.2
	c-3.9,14.7-4.8,29.7-4.8,44.8l-0.2,231.7l0,0c0.3,10.5,0.4,21,2.1,31.4c1.9,11,4.5,21.7,9.6,31.7c6.8,13.4,16.4,25.1,28.3,34.3
	c8.5,6.7,18,11.9,28.3,15.4c15.1,4.9,30.7,6.8,46.6,6.8c9.9,0.1,19.7,0.3,29.6,0.3c71.7-0.3,143.5,0.5,215.2-0.4
	c9.5-0.2,18.9-1.2,28.2-3c17.6-3.1,34-11.1,47.3-23c15.8-14.1,26.4-31.3,31.2-52.1c3.1-13.6,3.9-27.4,4.1-41.2v-2.8
	C485.3,361.9,484.9,127.8,484.9,124.7z M424.5,316.7c-0.1,59.5-48.3,107.7-107.7,107.7H183.3c-59.5-0.1-107.7-48.3-107.7-107.7
	V183.3c0.1-59.5,48.3-107.7,107.7-107.7h133.5c59.5,0.1,107.7,48.3,107.7,107.7L424.5,316.7z"/>
</svg>
